<svg width="51" height="52" viewBox="0 0 51 52" fill="none" xmlns="http://www.w3.org/2000/svg">
    <rect x="14.2721" y="6.22474" width="36" height="36" rx="5" transform="rotate(15 14.2721 6.22474)" stroke="#45F3FF"
          stroke-width="2"/>
    <rect x="10.9185" y="0.612372" width="37" height="37" rx="5.5" transform="rotate(15 10.9185 0.612372)"
          fill="url(#paint0_linear_1_41)" stroke="#45F3FF"/>
    <g clip-path="url(#clip0_1_41)">
        <path d="M36.0873 13.7805C35.5052 13.4494 34.8226 13.2816 34.0585 13.2816C32.3637 13.2816 30.2053 14.1138 27.6435 15.7553C25.8077 16.9315 24.4388 18.094 24.3814 18.143L24.3335 18.1839L24.2854 18.143C24.2281 18.094 22.8591 16.9315 21.0233 15.7553C18.4615 14.1138 16.3032 13.2816 14.6083 13.2816C13.8442 13.2816 13.1616 13.4494 12.5795 13.7804C11.7687 14.2414 10.8405 15.1984 11.0233 17.1386C11.129 18.2594 11.5751 19.5039 12.0066 20.7074C12.2916 21.5023 12.582 22.3127 12.7587 23.044C14.5684 18.0714 22.2203 19.7458 22.2203 19.7458C17.224 25.057 14.5615 22.7502 14.3946 22.2258C14.0248 22.6461 13.6127 23.2974 13.3936 23.7182C15.008 26.2475 18.4172 25.2736 20.234 24.0853C21.0886 23.5263 21.8639 22.8951 22.5384 22.219C22.551 22.2498 22.5641 22.2803 22.5785 22.3102C22.4879 22.4189 22.3978 22.5278 22.308 22.6371C21.8088 23.2458 21.3225 23.8961 20.8628 24.5698C20.4832 25.1261 20.1489 25.6425 19.8408 26.1484C19.4622 26.7701 19.0731 27.4614 18.6513 28.2616C18.3823 28.772 18.1186 29.3076 17.8451 29.899C17.6463 30.3287 17.4691 30.7731 17.2976 31.203C17.2556 31.3081 17.2137 31.4134 17.1714 31.5184L16.8678 32.2727L19.8905 30.2545L21.9506 33.2588L21.9551 32.4563C21.9565 32.2057 21.9586 31.9551 21.9607 31.7043L21.9641 31.2859C21.9671 30.882 22.0027 30.4665 22.037 30.0645L22.0524 29.8833L22.062 29.7565C22.1366 29.066 22.2207 28.332 22.3283 27.6057C22.4215 26.9807 22.5376 26.3593 22.6765 25.7428C22.8423 25.0042 23.0243 24.2207 23.2637 23.4744C23.2953 23.3758 23.3264 23.2768 23.3575 23.1779L23.3827 23.0977C23.5957 23.1944 23.8269 23.2443 24.0608 23.2441H24.6057C24.8476 23.2441 25.077 23.1915 25.2838 23.0977L25.3095 23.1792C25.3404 23.2777 25.3712 23.3762 25.4028 23.4744C25.642 24.2201 25.824 25.004 25.9901 25.7428C26.131 26.371 26.2481 26.9976 26.3382 27.6057C26.4458 28.332 26.5302 29.0678 26.6049 29.7605L26.6141 29.8829L26.6295 30.0654C26.6639 30.4671 26.6994 30.8824 26.7024 31.2859L26.7058 31.7119C26.7079 31.9599 26.71 32.208 26.7115 32.4563L26.716 33.2588L28.7762 30.2545L31.7989 32.2727L31.4953 31.5184C31.4529 31.4134 31.4111 31.3084 31.3691 31.2032C31.1977 30.7734 31.0204 30.3288 30.8215 29.899C30.5486 29.3089 30.2848 28.7732 30.0152 28.2616C29.5937 27.462 29.2046 26.7707 28.8258 26.1484C28.5182 25.6434 28.184 25.127 27.8038 24.5698C27.3443 23.8963 26.8579 23.2461 26.3586 22.6372C26.2689 22.5279 26.1787 22.4189 26.0882 22.3102C26.1026 22.2803 26.1157 22.2498 26.1283 22.2189C26.8027 22.8951 27.578 23.5262 28.4326 24.0852C30.2495 25.2735 33.6586 26.2476 35.273 23.7181C35.0539 23.2974 34.6418 22.6461 34.272 22.2257C34.1051 22.7501 31.4426 25.0569 26.4462 19.7457C26.4462 19.7457 34.0982 18.0714 35.9079 23.044C36.0845 22.3126 36.3749 21.5022 36.66 20.7073C37.0915 19.5038 37.5378 18.2593 37.6433 17.1385C37.8263 15.1984 36.8981 14.2415 36.0873 13.7805ZM26.2147 21.2655C26.0598 20.5188 25.3985 19.9577 24.6059 19.9577H24.061C23.2684 19.9577 22.6071 20.5188 22.4522 21.2655C22.4297 21.1572 22.4182 21.0469 22.4178 20.9363C22.4178 20.0288 23.1535 19.2931 24.061 19.2931H24.6059C25.5134 19.2931 26.2491 20.0288 26.2491 20.9363C26.2491 21.0491 26.2365 21.1589 26.2147 21.2655Z"
              fill="#191919"/>
    </g>
    <defs>
        <linearGradient id="paint0_linear_1_41" x1="12.765" y1="6.08" x2="43.0042" y2="8.47586"
                        gradientUnits="userSpaceOnUse">
            <stop stop-color="#ACFAFF"/>
            <stop offset="0.293742" stop-color="#45F4FF"/>
            <stop offset="1" stop-color="#02B9C7"/>
        </linearGradient>
        <clipPath id="clip0_1_41">
            <rect width="26.6667" height="20" fill="white" transform="translate(11 13.2702)"/>
        </clipPath>
    </defs>
</svg>
