<svg width="85" height="85" viewBox="0 0 85 85" fill="none" xmlns="http://www.w3.org/2000/svg">
    <g clip-path="url(#clip0_2014_10265)">
        <path d="M8.38743 16.2849C7.8358 16.9126 6.97032 17.2645 6.56062 17.9741C6.20286 18.4299 6.38282 19.1015 6.92053 19.3173C7.42824 19.4212 7.92793 19.0473 8.34567 18.8154C8.65148 18.6135 8.70342 18.3597 8.61345 18.0239C8.88926 17.71 9.16508 17.3962 9.29897 17.0004C9.62673 16.4327 8.82712 15.6872 8.38743 16.2849ZM5.67965 24.0887C5.14526 24.8504 4.67912 25.6577 4.28665 26.5014C3.90694 27.323 3.47528 28.3984 3.68522 29.1819C3.80519 29.6297 4.42485 29.7036 4.55874 29.3078C4.96844 28.5981 4.84043 27.6727 5.10821 26.8811C5.346 25.9776 5.7557 25.268 6.24735 24.4164C6.38124 24.0206 5.84353 23.8048 5.67965 24.0887ZM5.69257 34.8825C5.22876 34.047 4.84689 33.0696 4.57696 32.0622C4.48698 31.7264 3.92732 31.8764 4.01729 32.2122C4.3772 33.5554 4.42542 36.4217 6.00856 36.9573C6.29242 37.1212 6.53824 36.6954 6.47825 36.4715C6.32829 35.9118 5.95446 35.4122 5.69257 34.8825ZM13.1006 37.4564C11.3696 38.1601 9.89251 38.9158 7.97357 38.4702C7.71971 38.4183 7.66776 38.6721 7.92162 38.7241C9.93054 39.5055 11.9834 39.5553 13.6163 38.038C14.0041 37.6942 13.4064 37.2545 13.1006 37.4564ZM19.6001 29.4764C18.7947 30.0521 18.303 30.9037 17.6694 31.6733C16.9539 32.5848 16.3503 33.4664 15.7768 34.4599C15.6129 34.7437 16.0687 35.1015 16.3445 34.7876C16.8361 33.9361 17.4997 33.2784 18.1332 32.5088C18.7668 31.7392 19.6543 31.0215 20.1459 30.1699C20.3917 29.7442 19.9879 29.1325 19.6001 29.4764ZM24.9402 19.4077C23.1354 20.7311 21.7424 23.1438 20.7071 25.1008C20.5732 25.4966 20.999 25.7424 21.2748 25.4286C21.9604 24.4051 22.7578 23.3516 23.5853 22.4101C24.2188 21.6405 24.9943 20.9528 25.486 20.1012C25.7018 19.5635 25.246 19.2058 24.9402 19.4077ZM33.7926 12.5968C31.7478 13.0247 29.9429 14.3481 28.332 15.4996C28.0261 15.7015 28.258 16.1193 28.5939 16.0293C30.3468 14.9598 32.1896 14.226 34.0625 13.6042C34.5922 13.3423 34.3522 12.4469 33.7926 12.5968ZM42.2819 14.2811C41.5423 13.7595 40.5788 13.2978 39.7572 12.9181C39.0776 12.6203 38.5859 13.4719 39.1836 13.9116C39.8934 14.3213 40.6329 14.8429 41.3725 15.3646C42.1123 15.8862 42.9417 16.7437 43.8752 17.0934C44.271 17.2273 44.6287 16.7715 44.3968 16.3538C44.1569 15.4583 43.1334 14.7728 42.2819 14.2811ZM46.0282 19.7557C45.9082 19.3079 45.1249 19.5178 45.2448 19.9656C45.4328 21.1149 45.4789 22.1823 45.5548 23.3616C45.6008 24.429 45.3111 25.5864 45.611 26.7057C45.761 27.2654 46.6045 27.2793 46.6786 26.6596C47.1761 24.4868 46.68 21.7405 46.0282 19.7557ZM44.2443 32.3506L43.195 35.1512C42.9574 36.0546 42.3838 37.0481 42.5116 37.9736C42.6316 38.4213 43.1093 38.4133 43.4151 38.2114C44.1087 37.6656 44.1745 36.5683 44.3304 35.8067C44.6501 34.7613 44.8279 33.6339 45.1476 32.5885C45.2217 31.9688 44.4601 31.8129 44.2443 32.3506ZM40.8371 42.0214C40.0696 43.1868 39.526 44.2922 39.1244 45.4795C38.7227 46.6669 38.2171 48.362 38.7709 49.5333C39.0328 50.0629 39.6225 50.0249 39.8383 49.4872C40.188 48.5537 40 47.4044 40.0959 46.4189C40.1837 44.9558 40.6373 43.5145 41.2329 42.1553C41.4267 41.9834 41.001 41.7375 40.8371 42.0214ZM37.3961 54.7004C36.6287 55.8658 36.1151 57.0832 35.7734 58.4944C35.4317 59.9056 35.0681 61.6828 35.6519 62.966C35.8838 63.3838 36.5554 63.2038 36.5774 62.838C36.979 61.6505 36.6191 60.3073 36.7669 59.068C36.8847 57.7169 37.3383 56.2755 37.9338 54.9163C38.0977 54.6324 37.642 54.2746 37.3961 54.7004ZM41.873 71.856C40.9695 71.6184 40.208 71.4626 39.4684 70.941C38.6687 70.1955 38.085 68.9122 37.815 67.9048C37.725 67.5689 37.1653 67.7188 37.2554 68.0548C37.6014 70.2415 39.0388 73.8152 41.9191 72.9236C42.3369 72.6917 42.3808 71.9601 41.873 71.856ZM54.7877 72.5947C53.5267 72.8126 52.3551 73.3663 51.1241 73.6961C49.5269 74.0043 47.9517 73.9463 46.4805 73.3808C46.2267 73.329 46.2047 73.6948 46.3466 73.7766C49.1771 74.9377 52.8432 75.6349 55.4236 73.6238C55.8931 73.1381 55.3474 72.4447 54.7877 72.5947ZM62.2626 62.4339C61.599 63.0915 61.1074 63.9431 60.3619 64.7427C59.6983 65.4004 58.8626 65.8642 57.9973 66.2161C57.4675 66.478 57.6774 67.2615 58.2373 67.1115C60.2821 66.6836 62.6766 65.3222 63.2861 63.1194C63.584 62.4397 62.7622 62.0599 62.2626 62.4339ZM65.0523 54.488C63.987 56.333 62.84 58.3199 62.3123 60.3808C62.1265 61.0307 63 61.1563 63.2158 60.6186C64.0272 58.7217 65.7421 57.0625 66.1279 54.9196C66.0897 54.3302 65.3801 53.9205 65.0523 54.488ZM73.4775 52.3506C72.9617 51.769 71.9463 51.5612 71.1847 51.4054C70.3112 51.2795 69.3858 51.4077 68.4903 51.6476C67.9307 51.7976 68.1406 52.5809 68.7002 52.431C69.4838 52.221 70.2154 52.2651 70.977 52.421C71.6268 52.6068 72.2245 53.0465 72.8739 53.2322C73.4116 53.4478 73.8211 52.7384 73.4775 52.3506Z"
              fill="white"/>
        <path d="M81.363 54.9165C79.1061 52.7619 77.3189 50.1216 75.2559 47.7951C74.2544 46.7438 72.7634 48.343 73.653 49.4243C75.2602 51.3928 76.7855 53.5037 78.6986 55.2705C77.7212 55.6524 76.7438 56.0342 75.6544 56.4461C75.2367 56.678 74.4531 56.8879 74.2374 57.4258L74.1555 57.5675C74.1555 57.5675 74.0436 57.5975 74.0736 57.7095C73.9097 57.9933 74.2536 58.3811 74.4774 58.3211C74.6194 58.403 74.7315 58.373 74.9552 58.313C75.5449 58.2748 76.0745 58.0131 76.7461 57.8332C78.1712 57.3313 79.4844 56.8593 80.9696 56.5815C81.671 56.5135 81.8788 55.4981 81.363 54.9165Z"
              fill="white"/>
    </g>
    <defs>
        <clipPath id="clip0_2014_10265">
            <rect width="69.1259" height="69.1259" fill="white" transform="translate(0 17.8911) rotate(-15)"/>
        </clipPath>
    </defs>
</svg>
