<svg version="1.2" xmlns="http://www.w3.org/2000/svg" viewBox="0 0 36 36" width="36" height="36">
    <title>chain-icon-svg</title>
    <defs>
        <clipPath clipPathUnits="userSpaceOnUse" id="cp1">
            <path d="m-16 19.5l33.5-33.5 33.5 33.5-33.5 33.5z"/>
        </clipPath>
    </defs>
    <style>
        .s0 { fill: #ffffff }
    </style>
    <g id="Clip-Path" clip-path="url(#cp1)">
        <g id="Layer">
            <path id="Layer" class="s0"
                  d="m3.8 2.7c-0.6 0-1.3 0-1.9 0.1-0.4 0.1-0.4 0.7 0 0.7 0.6 0 1.1 0.1 1.7 0.1 0.6 0.1 1.3 0.3 2 0.2 0.2-0.1 0.3-0.4 0-0.6-0.4-0.4-1.2-0.5-1.8-0.5zm3.8 1.9c-0.2-0.2-0.6 0.1-0.3 0.4 0.4 0.5 0.8 1.1 1.2 1.8 0.4 0.5 0.6 1.3 1.1 1.8 0.3 0.3 0.8 0 0.6-0.4-0.4-1.3-1.6-2.7-2.6-3.6zm3.1 7.6l0.3 1.9c0.2 0.6 0.2 1.3 0.5 1.8 0.2 0.2 0.5 0 0.6-0.2 0.2-0.5-0.1-1.1-0.3-1.6-0.1-0.7-0.4-1.4-0.5-2.1-0.2-0.3-0.7-0.2-0.6 0.2zm1.2 6.5c-0.1 0.9 0 1.6 0.2 2.4 0.1 0.8 0.4 1.9 1.1 2.4 0.3 0.2 0.6 0 0.5-0.4-0.1-0.6-0.5-1.2-0.8-1.8-0.4-0.8-0.6-1.7-0.7-2.7 0-0.1-0.3-0.1-0.3 0.1zm2.2 8.1c-0.1 0.9 0 1.8 0.3 2.7 0.2 0.9 0.6 2 1.3 2.5 0.3 0.2 0.6-0.2 0.5-0.4-0.1-0.8-0.8-1.4-1.1-2.1-0.4-0.8-0.6-1.8-0.7-2.7 0-0.2-0.3-0.3-0.3 0zm8 8.1c-0.6 0.2-1.1 0.4-1.7 0.3-0.7-0.1-1.4-0.7-1.9-1.2-0.1-0.1-0.4 0.2-0.2 0.3 0.9 1.1 2.8 2.6 4.1 1.2 0.2-0.2 0-0.7-0.3-0.6zm7.4-3.7c-0.6 0.5-1.1 1.2-1.7 1.8-0.8 0.7-1.7 1.2-2.7 1.3-0.1 0.1 0 0.3 0.1 0.3 1.9-0.3 4.2-1.1 5-3 0.1-0.4-0.4-0.7-0.7-0.4zm0.9-8.1c-0.2 0.6-0.2 1.3-0.3 1.9-0.2 0.6-0.5 1.1-0.9 1.6-0.2 0.3 0.2 0.7 0.5 0.4 1-0.9 1.9-2.4 1.5-3.8-0.1-0.5-0.7-0.4-0.8-0.1zm-1-5.3c0 1.4 0 2.9 0.4 4.2 0.1 0.4 0.6 0.2 0.5-0.2-0.1-1.3 0.3-2.8-0.2-4.1-0.2-0.3-0.7-0.3-0.7 0.1zm4-3.9c-0.5-0.1-1.1 0.1-1.6 0.2-0.5 0.2-1 0.6-1.4 1-0.3 0.3 0.1 0.7 0.4 0.4 0.3-0.4 0.8-0.6 1.2-0.7 0.4-0.1 0.9-0.1 1.3-0.2 0.4 0 0.4-0.6 0.1-0.7z"/>
        </g>
    </g>
    <path id="Layer" class="s0" d="m2 4.5c-1.1 0-2-0.9-2-2 0-1.1 0.9-2 2-2 1.1 0 2 0.9 2 2 0 1.1-0.9 2-2 2z"/>
    <path id="Layer" class="s0" d="m34 15.5c-1.1 0-2-0.9-2-2 0-1.1 0.9-2 2-2 1.1 0 2 0.9 2 2 0 1.1-0.9 2-2 2z"/>
</svg>