<svg width="20" height="20" viewBox="0 0 20 20" fill="none" xmlns="http://www.w3.org/2000/svg">
<path fill-rule="evenodd" clip-rule="evenodd" d="M6.60288 1.79885C7.42705 0.851023 8.64332 0.250092 10 0.250092C11.3566 0.250092 12.5728 0.850963 13.397 1.79871C14.6501 1.71115 15.9352 2.14625 16.8946 3.10566C17.854 4.06507 18.2891 5.35018 18.2016 6.60328C19.1492 7.42745 19.75 8.64358 19.75 10.0001C19.75 11.3569 19.149 12.5732 18.2011 13.3974C18.2884 14.6503 17.8533 15.9351 16.8941 16.8944C15.9348 17.8536 14.65 18.2887 13.3971 18.2014C12.5729 19.1492 11.3567 19.7501 10 19.7501C8.6434 19.7501 7.4272 19.1492 6.60304 18.2015C5.34992 18.2891 4.0648 17.854 3.10537 16.8946C2.14596 15.9351 1.71086 14.65 1.79841 13.3969C0.850785 12.5727 0.25 11.3566 0.25 10.0001C0.25 8.64351 0.850846 7.42732 1.79855 6.60315C1.7111 5.35014 2.14621 4.06516 3.10554 3.10583C4.06488 2.14649 5.34987 1.71139 6.60288 1.79885ZM13.6103 8.18602C13.8511 7.84896 13.773 7.38055 13.4359 7.13979C13.0989 6.89903 12.6305 6.9771 12.3897 7.31416L9.1543 11.8437L7.53033 10.2198C7.23744 9.92687 6.76256 9.92687 6.46967 10.2198C6.17678 10.5127 6.17678 10.9875 6.46967 11.2804L8.71967 13.5304C8.87556 13.6863 9.09215 13.7657 9.31186 13.7475C9.53157 13.7294 9.73216 13.6154 9.8603 13.436L13.6103 8.18602Z" fill="#45F3FF"/>
</svg>
