<?xml version="1.0" encoding="UTF-8"?>
<svg id="_Шар_1" data-name="Шар 1" xmlns="http://www.w3.org/2000/svg" xmlns:xlink="http://www.w3.org/1999/xlink" viewBox="0 0 1062.32 1104.81">
  <defs>
    <style>
      .cls-1 {
        fill: url(#_Градієнт_без_назви);
      }

      .cls-2 {
        fill: #45f3ff;
      }

      .cls-3 {
        clip-path: url(#clippath);
      }

      .cls-4 {
        fill: none;
      }

      .cls-5 {
        fill: #191919;
      }
    </style>
    <linearGradient id="_Градієнт_без_назви" data-name="Градієнт без назви" x1="207.91" y1="893.24" x2="868.9" y2="840.87" gradientTransform="translate(-364.64 -94.58) rotate(90) scale(1 -1)" gradientUnits="userSpaceOnUse">
      <stop offset="0" stop-color="#acfaff"/>
      <stop offset=".29" stop-color="#45f4ff"/>
      <stop offset="1" stop-color="#02b9c7"/>
    </linearGradient>
    <clipPath id="clippath">
      <rect class="cls-4" x="214" y="278.93" width="582.9" height="437.17"/>
    </clipPath>
  </defs>
  <path class="cls-2" d="m764.89,1086.04c-11.4,0-22.86-1.49-34.15-4.53l-548.96-147.1c-69.86-18.72-111.46-90.79-92.74-160.63L236.12,224.83c18.73-69.85,90.85-111.48,160.63-92.73l548.96,147.09c69.85,18.72,111.45,90.78,92.73,160.63l-147.1,548.96c-9.07,33.83-30.76,62.12-61.09,79.62-20.21,11.68-42.65,17.63-65.36,17.63ZM362.82,171.34c-38.6,0-74.02,25.8-84.48,64.81l-147.09,548.95c-12.48,46.58,15.26,94.61,61.83,107.09l548.96,147.1c22.56,6,46.11,2.95,66.34-8.73,20.21-11.68,34.69-30.53,40.73-53.09l147.1-548.96c12.49-46.57-15.26-94.61-61.82-107.09L385.44,174.32c-7.55-2.02-15.15-2.99-22.62-2.99Z"/>
  <g>
    <path class="cls-1" d="m214,93.13h568.32c66.35,0,120.22,53.87,120.22,120.22v568.32c0,66.35-53.87,120.22-120.22,120.22H214c-66.35,0-120.22-53.87-120.22-120.22V213.35c0-66.35,53.87-120.22,120.22-120.22Z" transform="translate(-111.33 849.93) rotate(-75)"/>
    <path class="cls-2" d="m699.29,976.76c-11.38,0-22.84-1.52-34.15-4.53L116.19,825.14c-33.83-9.07-62.12-30.78-79.63-61.11-17.51-30.35-22.17-65.7-13.1-99.54L170.54,115.54C189.27,45.7,261.35,4.09,331.18,22.8l548.96,147.1c33.83,9.06,62.12,30.77,79.64,61.1,17.5,30.34,22.16,65.69,13.11,99.53l-147.1,548.96c-9.07,33.83-30.78,62.12-61.11,79.64-20.21,11.66-42.65,17.63-65.38,17.63ZM297.26,40.17c-48.25,0-92.53,32.24-105.6,81.02L44.57,670.17c-7.56,28.18-3.68,57.64,10.91,82.93,14.6,25.27,38.17,43.38,66.37,50.91l548.97,147.1c28.2,7.6,57.64,3.67,82.93-10.91,25.27-14.6,43.38-38.17,50.91-66.37l147.1-548.96c7.56-28.2,3.69-57.66-10.91-82.94-14.6-25.28-38.17-43.37-66.37-50.92L325.52,43.91c-9.44-2.53-18.92-3.74-28.26-3.74Z"/>
  </g>
  <g class="cls-3">
    <path class="cls-5" d="m762.37,290.08c-12.72-7.24-27.64-10.91-44.35-10.91-37.04,0-84.22,18.19-140.22,54.07-40.13,25.71-70.05,51.12-71.31,52.19l-1.05.89-1.05-.89c-1.25-1.07-31.18-26.48-71.31-52.19-56-35.88-103.17-54.07-140.22-54.07-16.7,0-31.62,3.67-44.35,10.9-17.73,10.08-38.01,31-34.02,73.41,2.31,24.5,12.06,51.7,21.49,78.01,6.23,17.38,12.58,35.09,16.44,51.07,39.56-108.69,206.82-72.09,206.82-72.09-109.21,116.1-167.41,65.67-171.06,54.21-8.09,9.19-17.09,23.43-21.88,32.62,35.29,55.29,109.81,34,149.52,8.02,18.68-12.22,35.63-26.02,50.37-40.79.28.67.56,1.34.88,1.99-1.98,2.38-3.95,4.76-5.91,7.15-10.91,13.3-21.54,27.52-31.59,42.24-8.3,12.16-15.6,23.45-22.34,34.51-8.28,13.59-16.78,28.7-26,46.19-5.88,11.16-11.64,22.86-17.62,35.79-4.35,9.39-8.22,19.11-11.97,28.5-.92,2.3-1.83,4.6-2.76,6.89l-6.64,16.49,66.07-44.12,45.03,65.67.1-17.54c.03-5.48.08-10.96.12-16.44l.07-9.15c.07-8.83.84-17.91,1.59-26.7l.33-3.96.21-2.77c1.63-15.09,3.47-31.14,5.82-47.01,2.04-13.66,4.58-27.24,7.61-40.72,3.63-16.14,7.6-33.27,12.84-49.58.69-2.16,1.37-4.32,2.05-6.48l.55-1.75c4.66,2.11,9.71,3.2,14.82,3.2h11.91c5.29,0,10.3-1.15,14.82-3.2l.56,1.78c.68,2.15,1.35,4.31,2.04,6.45,5.23,16.3,9.21,33.43,12.84,49.58,3.08,13.73,5.64,27.43,7.61,40.72,2.35,15.88,4.2,31.96,5.83,47.1l.2,2.68.34,3.99c.75,8.78,1.53,17.86,1.59,26.68l.08,9.31c.05,5.42.09,10.85.12,16.27l.1,17.54,45.03-65.67,66.07,44.12-6.64-16.49c-.93-2.3-1.84-4.59-2.76-6.89-3.75-9.4-7.62-19.11-11.97-28.51-5.97-12.9-11.73-24.61-17.62-35.79-9.21-17.48-17.72-32.59-26-46.19-6.72-11.04-14.03-22.33-22.34-34.51-10.04-14.72-20.68-28.93-31.59-42.24-1.96-2.39-3.93-4.77-5.91-7.15.31-.65.6-1.32.88-2,14.74,14.78,31.69,28.58,50.37,40.79,39.72,25.97,114.24,47.27,149.52-8.02-4.79-9.2-13.8-23.43-21.88-32.62-3.65,11.46-61.85,61.89-171.06-54.21,0,0,167.26-36.6,206.82,72.1,3.86-15.99,10.21-33.7,16.44-51.08,9.43-26.31,19.19-53.51,21.49-78.01,4-42.41-16.29-63.32-34.01-73.4Zm-215.8,163.61c-3.39-16.32-17.84-28.59-35.17-28.59h-11.91c-17.33,0-31.78,12.27-35.17,28.59-.49-2.37-.74-4.78-.75-7.2,0-19.84,16.08-35.92,35.92-35.92h11.91c19.84,0,35.92,16.08,35.92,35.92,0,2.47-.28,4.87-.75,7.2Z"/>
  </g>
</svg>